# xmcd CD database file
#
# Track frame offsets:
#	150
#	17172
#	31790
#	45385
#	61465
#	79420
#	94420
#	113615
#	129152
#	145705
#	171482
#
# Disc length: 2518 seconds
#
# Revision: 0
# Processed by: cddbd v1.4PL0 Copyright (c) Steve Scherf et al.
# Submitted via: CDex 1.40Release
#
DISCID=8b09d40b
DTITLE=Various Artist - Gotta Get It Hits - Country
DYEAR=2000
DGENRE=Country
TTITLE0=One - Vince Gill
TTITLE1=Safe in the Arms of Love - Martina McBride
TTITLE2=How do You Fall in Love - Alabama
TTITLE3=You're Easy on the Eyes - Terri Clark
TTITLE4=The Fun of Your Love - Jennifer Day
TTITLE5=Me Neither - Brad Paisley
TTITLE6=A Little Past Little Rock - Lee Ann Womack
TTITLE7=Out Here in the Water - Rebecca Lynn Howard
TTITLE8=Almost Doesn't Count - Mark Wills
TTITLE9=Guys Do it All the Time - Mindy McCready
TTITLE10=(Data)
EXTD=YEAR: 2000 ID3G: 2
EXTT0=
EXTT1=
EXTT2=
EXTT3=
EXTT4=
EXTT5=
EXTT6=
EXTT7=
EXTT8=
EXTT9=
EXTT10=
PLAYORDER=
